# xmcd
#
# Track frame offsets:
#   150
#   16710
#   28626
#   41788
#   55795
#   67844
#   82441
#   97630
#   112986
#   130967
#   151065
#   177060
#   190055
#   203964
#   223246
#   243106
#   255273
#   275338
#   299975
#
# Disc length: 4218 seconds
#
# Revision: 0
# Processed by: cddbd v1.4PL0 Copyright (c) Steve Scherf et al.
# Submitted via: uFREEDB 1.6.0
#
DISCID=05107813
DTITLE=Varios artistas - Love Song
DYEAR=1999
DGENRE=Books and Spoken
TTITLE0=forever and ever
TTITLE1=I only want to be with you
TTITLE2=My cherie amour
TTITLE3=Nothing´s gonna change my love for you
TTITLE4=Only you
TTITLE5=Quando m´innamora
TTITLE6=Release me
TTITLE7=Love to llove you baby
TTITLE8=I´ll be there
TTITLE9=Endless love
TTITLE10=Nikita
TTITLE11=You are the sunshine of my life
TTITLE12=You are everything
TTITLE13=Thicker than water
TTITLE14=Neither one of us
TTITLE15=California Dreamin´
TTITLE16=Nights in white satin
TTITLE17=you make me feel brand new
TTITLE18=You´ve lost than lovin´feeling
EXTD=
EXTT0=
EXTT1=
EXTT2=
EXTT3=
EXTT4=
EXTT5=
EXTT6=
EXTT7=
EXTT8=
EXTT9=
EXTT10=
EXTT11=
EXTT12=
EXTT13=
EXTT14=
EXTT15=
EXTT16=
EXTT17=
EXTT18=
PLAYORDER=
